# xmcd
#
# Track frame offsets: 
#        150
#        22493
#        40395
#        61533
#        78670
#        95917
#        118679
#        138030
#        155741
#        174384
#        188095
#
# Disc length: 2740 seconds
#
# Revision: 0
# Processed by: cddbd v1.5.2PL0 Copyright (c) Steve Scherf et al.
# Submitted via: ExactAudioCopy v1.0b3
#
DISCID=950ab20b
DTITLE=The Doobie Brothers - Takin it to the Streets
DYEAR=1976
DGENRE=Rock
TTITLE0=Wheels of Fortune
TTITLE1=Takin' it to the Streets
TTITLE2=8th Avenue Shuffle
TTITLE3=Losin' End
TTITLE4=Rio
TTITLE5=For Someone Special
TTITLE6=It Keeps You Runnin'
TTITLE7=Turn it Loose
TTITLE8=Carry Me Away
TTITLE9=Takin' it to the Streets (demo)
TTITLE10=We Would Sail Away (Saint Paul)
EXTD=
EXTT0=
EXTT1=
EXTT2=
EXTT3=
EXTT4=
EXTT5=
EXTT6=
EXTT7=
EXTT8=
EXTT9=
EXTT10=
PLAYORDER=
